<svg xmlns="http://www.w3.org/2000/svg" width="760" height="460" viewBox="0 0 760 460">
<rect width="100%" height="100%" fill="white"/>
<style>text{font-family:Inter,Arial,sans-serif;fill:#111827}.axis{stroke:#9ca3af;stroke-width:1}.grid{stroke:#e5e7eb;stroke-width:1}.small{font-size:11px}.tiny{font-size:9px}</style>
<text x="380.0" y="25.0" font-size="17" text-anchor="middle" font-weight="bold">Mean welfare shortfall across the budget sweep</text>
<line class="axis" x1="80" y1="50" x2="80" y2="350"/>
<line class="axis" x1="80" y1="350" x2="700" y2="350"/>
<line class="grid" x1="80" y1="350.0" x2="700" y2="350.0"/>
<text x="72.0" y="354.0" font-size="10" text-anchor="end" font-weight="normal">-0.64%</text>
<line class="grid" x1="80" y1="290.0" x2="700" y2="290.0"/>
<text x="72.0" y="294.0" font-size="10" text-anchor="end" font-weight="normal">0.68%</text>
<line class="grid" x1="80" y1="230.0" x2="700" y2="230.0"/>
<text x="72.0" y="234.0" font-size="10" text-anchor="end" font-weight="normal">2.01%</text>
<line class="grid" x1="80" y1="170.0" x2="700" y2="170.0"/>
<text x="72.0" y="174.0" font-size="10" text-anchor="end" font-weight="normal">3.34%</text>
<line class="grid" x1="80" y1="110.0" x2="700" y2="110.0"/>
<text x="72.0" y="114.0" font-size="10" text-anchor="end" font-weight="normal">4.66%</text>
<line class="grid" x1="80" y1="50.0" x2="700" y2="50.0"/>
<text x="72.0" y="54.0" font-size="10" text-anchor="end" font-weight="normal">5.99%</text>
<text x="80.0" y="370.0" font-size="10" text-anchor="middle" font-weight="normal">0.1×</text>
<text x="204.0" y="370.0" font-size="10" text-anchor="middle" font-weight="normal">0.3×</text>
<text x="328.0" y="370.0" font-size="10" text-anchor="middle" font-weight="normal">0.5×</text>
<text x="452.0" y="370.0" font-size="10" text-anchor="middle" font-weight="normal">1×</text>
<text x="576.0" y="370.0" font-size="10" text-anchor="middle" font-weight="normal">1.5×</text>
<text x="700.0" y="370.0" font-size="10" text-anchor="middle" font-weight="normal">3×</text>
<line x1="80.0" y1="310.0679840437466" x2="80.0" y2="314.67704495335727" stroke="#d97706" stroke-width="2"/>
<line x1="204.0" y1="307.4501840815333" x2="204.0" y2="310.31429681814103" stroke="#d97706" stroke-width="2"/>
<line x1="328.0" y1="306.982767460089" x2="328.0" y2="309.58133734900196" stroke="#d97706" stroke-width="2"/>
<line x1="452.0" y1="306.1833746520051" x2="452.0" y2="308.6637470879941" stroke="#d97706" stroke-width="2"/>
<line x1="576.0" y1="306.1944330571101" x2="576.0" y2="308.63951677846444" stroke="#d97706" stroke-width="2"/>
<line x1="700.0" y1="306.1652312738712" x2="700.0" y2="308.40421814690467" stroke="#d97706" stroke-width="2"/>
<polyline fill="none" stroke="#d97706" stroke-width="2.5" points="80.0,312.3 204.0,308.9 328.0,308.3 452.0,307.3 576.0,307.3 700.0,307.2"/>
<circle cx="80.0" cy="312.34549866016187" r="4" fill="#d97706"/>
<circle cx="204.0" cy="308.8616292603618" r="4" fill="#d97706"/>
<circle cx="328.0" cy="308.2776836189573" r="4" fill="#d97706"/>
<circle cx="452.0" cy="307.3335756256085" r="4" fill="#d97706"/>
<circle cx="576.0" cy="307.3335756256085" r="4" fill="#d97706"/>
<circle cx="700.0" cy="307.18834653721717" r="4" fill="#d97706"/>
<line x1="80.0" y1="79.03225806451616" x2="80.0" y2="198.92722003020938" stroke="#7c3aed" stroke-width="2"/>
<line x1="204.0" y1="118.60835549515068" x2="204.0" y2="220.8238695587492" stroke="#7c3aed" stroke-width="2"/>
<line x1="328.0" y1="177.87862470834997" x2="328.0" y2="276.4671885281131" stroke="#7c3aed" stroke-width="2"/>
<line x1="452.0" y1="280.8841310978587" x2="452.0" y2="303.0345346797325" stroke="#7c3aed" stroke-width="2"/>
<line x1="576.0" y1="274.9905895430129" x2="576.0" y2="302.59327971929997" stroke="#7c3aed" stroke-width="2"/>
<line x1="700.0" y1="308.6298214562298" x2="700.0" y2="312.6353973427971" stroke="#7c3aed" stroke-width="2"/>
<polyline fill="none" stroke="#7c3aed" stroke-width="2.5" points="80.0,140.3 204.0,170.1 328.0,230.5 452.0,292.1 576.0,289.8 700.0,310.7"/>
<circle cx="80.0" cy="140.28798007934665" r="4" fill="#7c3aed"/>
<circle cx="204.0" cy="170.09505994994478" r="4" fill="#7c3aed"/>
<circle cx="328.0" cy="230.47475582778912" r="4" fill="#7c3aed"/>
<circle cx="452.0" cy="292.12839739295566" r="4" fill="#7c3aed"/>
<circle cx="576.0" cy="289.8164221079773" r="4" fill="#7c3aed"/>
<circle cx="700.0" cy="310.71283605588866" r="4" fill="#7c3aed"/>
<line x1="80.0" y1="105.92923872952201" x2="80.0" y2="217.43886094624088" stroke="#1d4ed8" stroke-width="2"/>
<line x1="204.0" y1="206.75737865219364" x2="204.0" y2="282.5630269524666" stroke="#1d4ed8" stroke-width="2"/>
<line x1="328.0" y1="261.28982386895404" x2="328.0" y2="309.0119254151975" stroke="#1d4ed8" stroke-width="2"/>
<line x1="452.0" y1="317.68195464673124" x2="452.0" y2="320.90094755753296" stroke="#1d4ed8" stroke-width="2"/>
<line x1="576.0" y1="320.96773430391767" x2="576.0" y2="320.9677419354839" stroke="#1d4ed8" stroke-width="2"/>
<line x1="700.0" y1="320.96759610461095" x2="700.0" y2="320.9677215411023" stroke="#1d4ed8" stroke-width="2"/>
<polyline fill="none" stroke="#1d4ed8" stroke-width="2.5" points="80.0,163.2 204.0,245.9 328.0,287.8 452.0,319.6 576.0,321.0 700.0,321.0"/>
<circle cx="80.0" cy="163.1615329645841" r="4" fill="#1d4ed8"/>
<circle cx="204.0" cy="245.8573097190874" r="4" fill="#1d4ed8"/>
<circle cx="328.0" cy="287.7931692181542" r="4" fill="#1d4ed8"/>
<circle cx="452.0" cy="319.55789842509836" r="4" fill="#1d4ed8"/>
<circle cx="576.0" cy="320.96773884754157" r="4" fill="#1d4ed8"/>
<circle cx="700.0" cy="320.96766036789387" r="4" fill="#1d4ed8"/>
<rect x="80" y="430" width="12" height="3" fill="#d97706"/>
<text x="98.0" y="435.0" font-size="10" text-anchor="start" font-weight="normal">IterLP</text>
<rect x="230" y="430" width="12" height="3" fill="#7c3aed"/>
<text x="248.0" y="435.0" font-size="10" text-anchor="start" font-weight="normal">EG-FW</text>
<rect x="380" y="430" width="12" height="3" fill="#1d4ed8"/>
<text x="398.0" y="435.0" font-size="10" text-anchor="start" font-weight="normal">Quasi</text>
<text x="390.0" y="402.0" font-size="11" text-anchor="middle" font-weight="normal">MM budget multiplier; bars are paired bootstrap 95% intervals</text>
</svg>
