<svg xmlns="http://www.w3.org/2000/svg" width="760" height="460" viewBox="0 0 760 460">
<rect width="100%" height="100%" fill="white"/>
<style>text{font-family:Inter,Arial,sans-serif;fill:#111827}.axis{stroke:#9ca3af;stroke-width:1}.grid{stroke:#e5e7eb;stroke-width:1}.small{font-size:11px}.tiny{font-size:9px}</style>
<text x="380.0" y="25.0" font-size="17" text-anchor="middle" font-weight="bold">Solver wall time scaling</text>
<line class="axis" x1="85" y1="50" x2="85" y2="350"/>
<line class="axis" x1="85" y1="350" x2="705" y2="350"/>
<line class="grid" x1="85" y1="294.03231280325326" x2="705" y2="294.03231280325326"/>
<text x="77.0" y="298.0" font-size="10" text-anchor="end" font-weight="normal">0.01s</text>
<line class="grid" x1="85" y1="209.17320325962461" x2="705" y2="209.17320325962461"/>
<text x="77.0" y="213.2" font-size="10" text-anchor="end" font-weight="normal">0.1s</text>
<line class="grid" x1="85" y1="124.31409371599597" x2="705" y2="124.31409371599597"/>
<text x="77.0" y="128.3" font-size="10" text-anchor="end" font-weight="normal">1s</text>
<text x="85.0" y="370.0" font-size="10" text-anchor="middle" font-weight="normal">300</text>
<text x="291.7" y="370.0" font-size="10" text-anchor="middle" font-weight="normal">3,000</text>
<text x="498.3" y="370.0" font-size="10" text-anchor="middle" font-weight="normal">10,000</text>
<text x="705.0" y="370.0" font-size="10" text-anchor="middle" font-weight="normal">30,000</text>
<polyline fill="none" stroke="#111827" stroke-width="2.5" points="85.0,335.1 291.7,258.8 498.3,205.8 705.0,152.5"/>
<circle cx="85.0" cy="335.05705255811847" r="4" fill="#111827"/>
<circle cx="291.66666666666663" cy="258.76306862520653" r="4" fill="#111827"/>
<circle cx="498.3333333333333" cy="205.76559280806845" r="4" fill="#111827"/>
<circle cx="705.0" cy="152.54391141491044" r="4" fill="#111827"/>
<polyline fill="none" stroke="#d97706" stroke-width="2.5" points="85.0,257.3 291.7,177.6 498.3,121.4 705.0,66.7"/>
<circle cx="85.0" cy="257.3348984122929" r="4" fill="#d97706"/>
<circle cx="291.66666666666663" cy="177.61739934384545" r="4" fill="#d97706"/>
<circle cx="498.3333333333333" cy="121.3988463123703" r="4" fill="#d97706"/>
<circle cx="705.0" cy="66.68875412048567" r="4" fill="#d97706"/>
<polyline fill="none" stroke="#7c3aed" stroke-width="2.5" points="85.0,223.2 291.7,146.0 498.3,88.9 705.0,64.9"/>
<circle cx="85.0" cy="223.1514041158003" r="4" fill="#7c3aed"/>
<circle cx="291.66666666666663" cy="146.01982014306435" r="4" fill="#7c3aed"/>
<circle cx="498.3333333333333" cy="88.90445259044174" r="4" fill="#7c3aed"/>
<circle cx="705.0" cy="64.94294744188153" r="4" fill="#7c3aed"/>
<polyline fill="none" stroke="#1d4ed8" stroke-width="2.5" points="85.0,296.9 291.7,216.5 498.3,163.8 705.0,114.9"/>
<circle cx="85.0" cy="296.89745398486497" r="4" fill="#1d4ed8"/>
<circle cx="291.66666666666663" cy="216.5471890229916" r="4" fill="#1d4ed8"/>
<circle cx="498.3333333333333" cy="163.83163050844925" r="4" fill="#1d4ed8"/>
<circle cx="705.0" cy="114.86303307058907" r="4" fill="#1d4ed8"/>
<rect x="85" y="430" width="12" height="3" fill="#111827"/>
<text x="103.0" y="435.0" font-size="10" text-anchor="start" font-weight="normal">LP</text>
<rect x="210" y="430" width="12" height="3" fill="#d97706"/>
<text x="228.0" y="435.0" font-size="10" text-anchor="start" font-weight="normal">IterLP</text>
<rect x="335" y="430" width="12" height="3" fill="#7c3aed"/>
<text x="353.0" y="435.0" font-size="10" text-anchor="start" font-weight="normal">EG-FW</text>
<rect x="460" y="430" width="12" height="3" fill="#1d4ed8"/>
<text x="478.0" y="435.0" font-size="10" text-anchor="start" font-weight="normal">Quasi</text>
<text x="395.0" y="402.0" font-size="11" text-anchor="middle" font-weight="normal">Declared retail orders (log-time axis)</text>
</svg>
