<svg xmlns="http://www.w3.org/2000/svg" width="780" height="464" viewBox="0 0 780 464">
<rect width="100%" height="100%" fill="white"/>
<style>text{font-family:Inter,Arial,sans-serif;fill:#111827}.axis{stroke:#9ca3af;stroke-width:1}.grid{stroke:#e5e7eb;stroke-width:1}.small{font-size:11px}.tiny{font-size:9px}</style>
<text x="390.0" y="25.0" font-size="17" text-anchor="middle" font-weight="bold">Every declared run by termination outcome</text>
<text x="140.0" y="69.0" font-size="11" text-anchor="end" font-weight="normal">Fisher</text>
<rect x="150" y="55" width="536.6666666666666" height="20" fill="#16a34a"/>
<text x="418.3" y="69.0" font-size="9" text-anchor="middle" font-weight="normal">46</text>
<rect x="686.6666666666666" y="55" width="23.333333333333332" height="20" fill="#dc2626"/>
<text x="718.0" y="69.0" font-size="10" text-anchor="start" font-weight="normal">n=48</text>
<text x="140.0" y="117.0" font-size="11" text-anchor="end" font-weight="normal">Quasi</text>
<rect x="150" y="103" width="435.9493670886076" height="20" fill="#16a34a"/>
<text x="368.0" y="117.0" font-size="9" text-anchor="middle" font-weight="normal">123</text>
<rect x="585.9493670886076" y="103" width="124.0506329113924" height="20" fill="#dc2626"/>
<text x="648.0" y="117.0" font-size="9" text-anchor="middle" font-weight="normal">35</text>
<text x="718.0" y="117.0" font-size="10" text-anchor="start" font-weight="normal">n=158</text>
<text x="140.0" y="165.0" font-size="11" text-anchor="end" font-weight="normal">D-LP</text>
<rect x="150" y="151" width="175.0" height="20" fill="#16a34a"/>
<text x="237.5" y="165.0" font-size="9" text-anchor="middle" font-weight="normal">5</text>
<rect x="325.0" y="151" width="385.0" height="20" fill="#f59e0b"/>
<text x="517.5" y="165.0" font-size="9" text-anchor="middle" font-weight="normal">11</text>
<text x="718.0" y="165.0" font-size="10" text-anchor="start" font-weight="normal">n=16</text>
<text x="140.0" y="213.0" font-size="11" text-anchor="end" font-weight="normal">D-Quasi</text>
<rect x="150" y="199" width="175.0" height="20" fill="#16a34a"/>
<text x="237.5" y="213.0" font-size="9" text-anchor="middle" font-weight="normal">5</text>
<rect x="325.0" y="199" width="280.0" height="20" fill="#f59e0b"/>
<text x="465.0" y="213.0" font-size="9" text-anchor="middle" font-weight="normal">8</text>
<rect x="605.0" y="199" width="105.0" height="20" fill="#dc2626"/>
<text x="657.5" y="213.0" font-size="9" text-anchor="middle" font-weight="normal">3</text>
<text x="718.0" y="213.0" font-size="10" text-anchor="start" font-weight="normal">n=16</text>
<text x="140.0" y="261.0" font-size="11" text-anchor="end" font-weight="normal">EG-FW</text>
<rect x="150" y="247" width="183.94160583941607" height="20" fill="#16a34a"/>
<text x="242.0" y="261.0" font-size="9" text-anchor="middle" font-weight="normal">45</text>
<rect x="333.94160583941607" y="247" width="376.05839416058393" height="20" fill="#f59e0b"/>
<text x="522.0" y="261.0" font-size="9" text-anchor="middle" font-weight="normal">92</text>
<text x="718.0" y="261.0" font-size="10" text-anchor="start" font-weight="normal">n=137</text>
<text x="140.0" y="309.0" font-size="11" text-anchor="end" font-weight="normal">IterLP</text>
<rect x="150" y="295" width="519.1240875912408" height="20" fill="#16a34a"/>
<text x="409.6" y="309.0" font-size="9" text-anchor="middle" font-weight="normal">127</text>
<rect x="669.1240875912408" y="295" width="40.87591240875913" height="20" fill="#f59e0b"/>
<text x="689.6" y="309.0" font-size="9" text-anchor="middle" font-weight="normal">10</text>
<text x="718.0" y="309.0" font-size="10" text-anchor="start" font-weight="normal">n=137</text>
<text x="140.0" y="357.0" font-size="11" text-anchor="end" font-weight="normal">LP</text>
<rect x="150" y="343" width="560.0" height="20" fill="#16a34a"/>
<text x="430.0" y="357.0" font-size="9" text-anchor="middle" font-weight="normal">158</text>
<text x="718.0" y="357.0" font-size="10" text-anchor="start" font-weight="normal">n=158</text>
<text x="140.0" y="405.0" font-size="11" text-anchor="end" font-weight="normal">MILP</text>
<rect x="150" y="391" width="448.0" height="20" fill="#16a34a"/>
<text x="374.0" y="405.0" font-size="9" text-anchor="middle" font-weight="normal">4</text>
<rect x="598.0" y="391" width="112.0" height="20" fill="#dc2626"/>
<text x="654.0" y="405.0" font-size="9" text-anchor="middle" font-weight="normal">1</text>
<text x="718.0" y="405.0" font-size="10" text-anchor="start" font-weight="normal">n=5</text>
<rect x="150" y="439" width="10" height="10" fill="#16a34a"/>
<text x="165.0" y="448.0" font-size="9" text-anchor="start" font-weight="normal">converged</text>
<rect x="280" y="439" width="10" height="10" fill="#f59e0b"/>
<text x="295.0" y="448.0" font-size="9" text-anchor="start" font-weight="normal">iteration limit</text>
<rect x="410" y="439" width="10" height="10" fill="#60a5fa"/>
<text x="425.0" y="448.0" font-size="9" text-anchor="start" font-weight="normal">delegated</text>
<rect x="540" y="439" width="10" height="10" fill="#dc2626"/>
<text x="555.0" y="448.0" font-size="9" text-anchor="start" font-weight="normal">failed</text>
</svg>
