<svg xmlns="http://www.w3.org/2000/svg" width="780" height="450" viewBox="0 0 780 450">
<rect width="100%" height="100%" fill="white"/>
<style>text{font-family:Inter,Arial,sans-serif;fill:#111827}.axis{stroke:#9ca3af;stroke-width:1}.grid{stroke:#e5e7eb;stroke-width:1}.small{font-size:11px}.tiny{font-size:9px}</style>
<text x="390.0" y="25.0" font-size="17" text-anchor="middle" font-weight="bold">Shared-capital utilization: feasible solvers vs budget-blind LP</text>
<line class="axis" x1="80" y1="50" x2="80" y2="340"/>
<line class="axis" x1="80" y1="340" x2="720" y2="340"/>
<line class="grid" x1="80" y1="340.0" x2="720" y2="340.0"/>
<text x="72.0" y="344.0" font-size="10" text-anchor="end" font-weight="normal">0.0×</text>
<line class="grid" x1="80" y1="321.6627081923463" x2="720" y2="321.6627081923463"/>
<text x="72.0" y="325.7" font-size="10" text-anchor="end" font-weight="normal">0.5×</text>
<line class="grid" x1="80" y1="303.32541638469263" x2="720" y2="303.32541638469263"/>
<text x="72.0" y="307.3" font-size="10" text-anchor="end" font-weight="normal">1.0×</text>
<line class="grid" x1="80" y1="50.0" x2="720" y2="50.0"/>
<text x="72.0" y="54.0" font-size="10" text-anchor="end" font-weight="normal">7.9×</text>
<line x1="80" y1="303.32541638469263" x2="720" y2="303.32541638469263" stroke="#dc2626" stroke-width="1.5" stroke-dasharray="5,4"/>
<text x="80.0" y="360.0" font-size="10" text-anchor="middle" font-weight="normal">0.1×</text>
<text x="208.0" y="360.0" font-size="10" text-anchor="middle" font-weight="normal">0.25×</text>
<text x="336.0" y="360.0" font-size="10" text-anchor="middle" font-weight="normal">0.5×</text>
<text x="464.0" y="360.0" font-size="10" text-anchor="middle" font-weight="normal">1×</text>
<text x="592.0" y="360.0" font-size="10" text-anchor="middle" font-weight="normal">2×</text>
<text x="720.0" y="360.0" font-size="10" text-anchor="middle" font-weight="normal">10×</text>
<polyline fill="none" stroke="#9ca3af" stroke-width="2.5" points="80.0,71.5 208.0,232.6 336.0,286.3 464.0,313.1 592.0,326.6 720.0,337.3"/>
<circle cx="80.0" cy="71.48148148148152" r="4" fill="#9ca3af"/>
<circle cx="208.0" cy="232.5925925925926" r="4" fill="#9ca3af"/>
<circle cx="336.0" cy="286.2962962962963" r="4" fill="#9ca3af"/>
<circle cx="464.0" cy="313.1481481481409" r="4" fill="#9ca3af"/>
<circle cx="592.0" cy="326.57407407407044" r="4" fill="#9ca3af"/>
<circle cx="720.0" cy="337.3148148148141" r="4" fill="#9ca3af"/>
<polyline fill="none" stroke="#111827" stroke-width="2.5" points="80.0,303.4 208.0,303.4 336.0,303.4 464.0,313.1 592.0,326.6 720.0,337.3"/>
<circle cx="80.0" cy="303.4396693242187" r="4" fill="#111827"/>
<circle cx="208.0" cy="303.3663798755167" r="4" fill="#111827"/>
<circle cx="336.0" cy="303.4092311201688" r="4" fill="#111827"/>
<circle cx="464.0" cy="313.1481481481409" r="4" fill="#111827"/>
<circle cx="592.0" cy="326.57407407407044" r="4" fill="#111827"/>
<circle cx="720.0" cy="337.3148148148141" r="4" fill="#111827"/>
<polyline fill="none" stroke="#7c3aed" stroke-width="2.5" points="80.0,304.3 208.0,305.3 336.0,308.1 464.0,313.1 592.0,326.6 720.0,337.3"/>
<circle cx="80.0" cy="304.2965123375129" r="4" fill="#7c3aed"/>
<circle cx="208.0" cy="305.33994600597936" r="4" fill="#7c3aed"/>
<circle cx="336.0" cy="308.1363166733263" r="4" fill="#7c3aed"/>
<circle cx="464.0" cy="313.1481481481409" r="4" fill="#7c3aed"/>
<circle cx="592.0" cy="326.57407407407044" r="4" fill="#7c3aed"/>
<circle cx="720.0" cy="337.3148148148141" r="4" fill="#7c3aed"/>
<polyline fill="none" stroke="#1d4ed8" stroke-width="2.5" points="80.0,305.7 208.0,305.2 336.0,308.1 464.0,313.1 592.0,326.6 720.0,337.3"/>
<circle cx="80.0" cy="305.7229329707273" r="4" fill="#1d4ed8"/>
<circle cx="208.0" cy="305.2431856222695" r="4" fill="#1d4ed8"/>
<circle cx="336.0" cy="308.14655478991824" r="4" fill="#1d4ed8"/>
<circle cx="464.0" cy="313.1481481481409" r="4" fill="#1d4ed8"/>
<circle cx="592.0" cy="326.57407407407044" r="4" fill="#1d4ed8"/>
<circle cx="720.0" cy="337.31481679554275" r="4" fill="#1d4ed8"/>
<rect x="80" y="423" width="12" height="3" fill="#9ca3af"/>
<text x="98.0" y="428.0" font-size="9" text-anchor="start" font-weight="normal">LP (no budget)</text>
<rect x="235" y="423" width="12" height="3" fill="#111827"/>
<text x="253.0" y="428.0" font-size="9" text-anchor="start" font-weight="normal">LP</text>
<rect x="390" y="423" width="12" height="3" fill="#7c3aed"/>
<text x="408.0" y="428.0" font-size="9" text-anchor="start" font-weight="normal">RC-FW</text>
<rect x="545" y="423" width="12" height="3" fill="#1d4ed8"/>
<text x="563.0" y="428.0" font-size="9" text-anchor="start" font-weight="normal">Quasi</text>
</svg>
