<svg xmlns="http://www.w3.org/2000/svg" width="760" height="460" viewBox="0 0 760 460">
<rect width="100%" height="100%" fill="white"/>
<style>text{font-family:Inter,Arial,sans-serif;fill:#111827}.axis{stroke:#9ca3af;stroke-width:1}.grid{stroke:#e5e7eb;stroke-width:1}.small{font-size:11px}.tiny{font-size:9px}</style>
<text x="380.0" y="25.0" font-size="17" text-anchor="middle" font-weight="bold">Runtime versus market-maker dimension at fixed book size</text>
<line class="axis" x1="85" y1="50" x2="85" y2="350"/>
<line class="axis" x1="85" y1="350" x2="705" y2="350"/>
<line class="grid" x1="85" y1="160.01895222478288" x2="705" y2="160.01895222478288"/>
<text x="77.0" y="164.0" font-size="10" text-anchor="end" font-weight="normal">0.1s</text>
<text x="85.0" y="370.0" font-size="10" text-anchor="middle" font-weight="normal">1</text>
<text x="240.0" y="370.0" font-size="10" text-anchor="middle" font-weight="normal">2</text>
<text x="395.0" y="370.0" font-size="10" text-anchor="middle" font-weight="normal">4</text>
<text x="550.0" y="370.0" font-size="10" text-anchor="middle" font-weight="normal">8</text>
<text x="705.0" y="370.0" font-size="10" text-anchor="middle" font-weight="normal">16</text>
<polyline fill="none" stroke="#111827" stroke-width="2.5" points="85.0,313.0 240.0,260.8 395.0,255.8 550.0,251.8 705.0,251.6"/>
<circle cx="85.0" cy="312.9805555855789" r="4" fill="#111827"/>
<circle cx="240.0" cy="260.83939702662866" r="4" fill="#111827"/>
<circle cx="395.0" cy="255.79873629478308" r="4" fill="#111827"/>
<circle cx="550.0" cy="251.842242277964" r="4" fill="#111827"/>
<circle cx="705.0" cy="251.60529485138514" r="4" fill="#111827"/>
<polyline fill="none" stroke="#7c3aed" stroke-width="2.5" points="85.0,174.6 240.0,153.6 395.0,143.6 550.0,125.7 705.0,121.0"/>
<circle cx="85.0" cy="174.58506228398556" r="4" fill="#7c3aed"/>
<circle cx="240.0" cy="153.60138636619314" r="4" fill="#7c3aed"/>
<circle cx="395.0" cy="143.58687469207243" r="4" fill="#7c3aed"/>
<circle cx="550.0" cy="125.69829653471004" r="4" fill="#7c3aed"/>
<circle cx="705.0" cy="121.00733418384488" r="4" fill="#7c3aed"/>
<polyline fill="none" stroke="#ea580c" stroke-width="2.5" points="85.0,182.5 240.0,178.2 395.0,168.6 550.0,112.9 705.0,87.0"/>
<circle cx="85.0" cy="182.50482357086386" r="4" fill="#ea580c"/>
<circle cx="240.0" cy="178.18669395536028" r="4" fill="#ea580c"/>
<circle cx="395.0" cy="168.60074970432095" r="4" fill="#ea580c"/>
<circle cx="550.0" cy="112.88678960802696" r="4" fill="#ea580c"/>
<circle cx="705.0" cy="87.01944441442112" r="4" fill="#ea580c"/>
<polyline fill="none" stroke="#1d4ed8" stroke-width="2.5" points="85.0,259.7 240.0,265.0 395.0,263.6 550.0,260.2 705.0,250.7"/>
<circle cx="85.0" cy="259.7247083449972" r="4" fill="#1d4ed8"/>
<circle cx="240.0" cy="264.9653697167892" r="4" fill="#1d4ed8"/>
<circle cx="395.0" cy="263.62838836999856" r="4" fill="#1d4ed8"/>
<circle cx="550.0" cy="260.15674760046755" r="4" fill="#1d4ed8"/>
<circle cx="705.0" cy="250.7150139857576" r="4" fill="#1d4ed8"/>
<rect x="85" y="430" width="12" height="3" fill="#111827"/>
<text x="103.0" y="435.0" font-size="10" text-anchor="start" font-weight="normal">LP</text>
<rect x="210" y="430" width="12" height="3" fill="#7c3aed"/>
<text x="228.0" y="435.0" font-size="10" text-anchor="start" font-weight="normal">RC-FW</text>
<rect x="335" y="430" width="12" height="3" fill="#ea580c"/>
<text x="353.0" y="435.0" font-size="10" text-anchor="start" font-weight="normal">Pacing bundle</text>
<rect x="460" y="430" width="12" height="3" fill="#1d4ed8"/>
<text x="478.0" y="435.0" font-size="10" text-anchor="start" font-weight="normal">Quasi</text>
<text x="395.0" y="402.0" font-size="11" text-anchor="middle" font-weight="normal">Market makers; fixed 2,000-order book (log-time axis)</text>
</svg>
