<svg xmlns="http://www.w3.org/2000/svg" width="760" height="460" viewBox="0 0 760 460">
<rect width="100%" height="100%" fill="white"/>
<style>text{font-family:Inter,Arial,sans-serif;fill:#111827}.axis{stroke:#9ca3af;stroke-width:1}.grid{stroke:#e5e7eb;stroke-width:1}.small{font-size:11px}.tiny{font-size:9px}</style>
<text x="380.0" y="25.0" font-size="17" text-anchor="middle" font-weight="bold">Runtime versus order count at fixed MM dimension</text>
<line class="axis" x1="85" y1="50" x2="85" y2="350"/>
<line class="axis" x1="85" y1="350" x2="705" y2="350"/>
<line class="grid" x1="85" y1="266.63003346351854" x2="705" y2="266.63003346351854"/>
<text x="77.0" y="270.6" font-size="10" text-anchor="end" font-weight="normal">0.01s</text>
<line class="grid" x1="85" y1="177.41046104943794" x2="705" y2="177.41046104943794"/>
<text x="77.0" y="181.4" font-size="10" text-anchor="end" font-weight="normal">0.1s</text>
<line class="grid" x1="85" y1="88.1908886353574" x2="705" y2="88.1908886353574"/>
<text x="77.0" y="92.2" font-size="10" text-anchor="end" font-weight="normal">1s</text>
<text x="85.0" y="370.0" font-size="10" text-anchor="middle" font-weight="normal">80</text>
<text x="291.7" y="370.0" font-size="10" text-anchor="middle" font-weight="normal">400</text>
<text x="498.3" y="370.0" font-size="10" text-anchor="middle" font-weight="normal">2,000</text>
<text x="705.0" y="370.0" font-size="10" text-anchor="middle" font-weight="normal">10,000</text>
<polyline fill="none" stroke="#111827" stroke-width="2.5" points="85.0,334.3 291.7,276.5 498.3,230.8 705.0,132.9"/>
<circle cx="85.0" cy="334.289213161195" r="4" fill="#111827"/>
<circle cx="291.66666666666663" cy="276.5114257375589" r="4" fill="#111827"/>
<circle cx="498.3333333333333" cy="230.811769991194" r="4" fill="#111827"/>
<circle cx="705.0" cy="132.9387341308875" r="4" fill="#111827"/>
<polyline fill="none" stroke="#7c3aed" stroke-width="2.5" points="85.0,262.6 291.7,244.0 498.3,185.4 705.0,75.9"/>
<circle cx="85.0" cy="262.5553178780614" r="4" fill="#7c3aed"/>
<circle cx="291.66666666666663" cy="244.00912414105386" r="4" fill="#7c3aed"/>
<circle cx="498.3333333333333" cy="185.416809702392" r="4" fill="#7c3aed"/>
<circle cx="705.0" cy="75.87244984417788" r="4" fill="#7c3aed"/>
<polyline fill="none" stroke="#ea580c" stroke-width="2.5" points="85.0,302.7 291.7,270.0 498.3,185.6 705.0,65.7"/>
<circle cx="85.0" cy="302.6787243567293" r="4" fill="#ea580c"/>
<circle cx="291.66666666666663" cy="269.99784877052093" r="4" fill="#ea580c"/>
<circle cx="498.3333333333333" cy="185.60570840690121" r="4" fill="#ea580c"/>
<circle cx="705.0" cy="65.710786838805" r="4" fill="#ea580c"/>
<polyline fill="none" stroke="#1d4ed8" stroke-width="2.5" points="85.0,313.0 291.7,282.8 498.3,220.6 705.0,133.6"/>
<circle cx="85.0" cy="313.0220456483927" r="4" fill="#1d4ed8"/>
<circle cx="291.66666666666663" cy="282.82899934685895" r="4" fill="#1d4ed8"/>
<circle cx="498.3333333333333" cy="220.60584089360782" r="4" fill="#1d4ed8"/>
<circle cx="705.0" cy="133.61621556652193" r="4" fill="#1d4ed8"/>
<rect x="85" y="430" width="12" height="3" fill="#111827"/>
<text x="103.0" y="435.0" font-size="10" text-anchor="start" font-weight="normal">LP</text>
<rect x="210" y="430" width="12" height="3" fill="#7c3aed"/>
<text x="228.0" y="435.0" font-size="10" text-anchor="start" font-weight="normal">RC-FW</text>
<rect x="335" y="430" width="12" height="3" fill="#ea580c"/>
<text x="353.0" y="435.0" font-size="10" text-anchor="start" font-weight="normal">Pacing bundle</text>
<rect x="460" y="430" width="12" height="3" fill="#1d4ed8"/>
<text x="478.0" y="435.0" font-size="10" text-anchor="start" font-weight="normal">Quasi</text>
<text x="395.0" y="402.0" font-size="11" text-anchor="middle" font-weight="normal">Declared orders; fixed two market makers (log-time axis)</text>
</svg>
