<svg xmlns="http://www.w3.org/2000/svg" width="780" height="320" viewBox="0 0 780 320">
<rect width="100%" height="100%" fill="white"/>
<style>text{font-family:Inter,Arial,sans-serif;fill:#111827}.axis{stroke:#9ca3af;stroke-width:1}.grid{stroke:#e5e7eb;stroke-width:1}.small{font-size:11px}.tiny{font-size:9px}</style>
<text x="390.0" y="25.0" font-size="17" text-anchor="middle" font-weight="bold">Every declared run by termination outcome</text>
<text x="140.0" y="69.0" font-size="11" text-anchor="end" font-weight="normal">Quasi</text>
<rect x="150" y="55" width="549.9099099099099" height="20" fill="#16a34a"/>
<text x="425.0" y="69.0" font-size="9" text-anchor="middle" font-weight="normal">109</text>
<rect x="699.9099099099099" y="55" width="10.09009009009009" height="20" fill="#dc2626"/>
<text x="718.0" y="69.0" font-size="10" text-anchor="start" font-weight="normal">n=111</text>
<text x="140.0" y="117.0" font-size="11" text-anchor="end" font-weight="normal">LP</text>
<rect x="150" y="103" width="438.9189189189189" height="20" fill="#16a34a"/>
<text x="369.5" y="117.0" font-size="9" text-anchor="middle" font-weight="normal">87</text>
<rect x="588.918918918919" y="103" width="121.08108108108108" height="20" fill="#f59e0b"/>
<text x="649.5" y="117.0" font-size="9" text-anchor="middle" font-weight="normal">24</text>
<text x="718.0" y="117.0" font-size="10" text-anchor="start" font-weight="normal">n=111</text>
<text x="140.0" y="165.0" font-size="11" text-anchor="end" font-weight="normal">LP (no budget)</text>
<rect x="150" y="151" width="560.0" height="20" fill="#16a34a"/>
<text x="430.0" y="165.0" font-size="9" text-anchor="middle" font-weight="normal">111</text>
<rect x="710.0" y="151" width="383.4234234234234" height="20" fill="#dc2626"/>
<text x="901.7" y="165.0" font-size="9" text-anchor="middle" font-weight="normal">76</text>
<text x="718.0" y="165.0" font-size="10" text-anchor="start" font-weight="normal">n=111</text>
<text x="140.0" y="213.0" font-size="11" text-anchor="end" font-weight="normal">Pacing bundle</text>
<rect x="150" y="199" width="529.7297297297297" height="20" fill="#16a34a"/>
<text x="414.9" y="213.0" font-size="9" text-anchor="middle" font-weight="normal">105</text>
<rect x="679.7297297297297" y="199" width="25.225225225225227" height="20" fill="#f59e0b"/>
<text x="692.3" y="213.0" font-size="9" text-anchor="middle" font-weight="normal">5</text>
<rect x="704.9549549549549" y="199" width="5.045045045045045" height="20" fill="#dc2626"/>
<text x="718.0" y="213.0" font-size="10" text-anchor="start" font-weight="normal">n=111</text>
<text x="140.0" y="261.0" font-size="11" text-anchor="end" font-weight="normal">RC-FW</text>
<rect x="150" y="247" width="413.6936936936937" height="20" fill="#16a34a"/>
<text x="356.8" y="261.0" font-size="9" text-anchor="middle" font-weight="normal">82</text>
<rect x="563.6936936936937" y="247" width="141.26126126126127" height="20" fill="#f59e0b"/>
<text x="634.3" y="261.0" font-size="9" text-anchor="middle" font-weight="normal">28</text>
<rect x="704.9549549549549" y="247" width="5.045045045045045" height="20" fill="#dc2626"/>
<text x="718.0" y="261.0" font-size="10" text-anchor="start" font-weight="normal">n=111</text>
<rect x="150" y="295" width="10" height="10" fill="#16a34a"/>
<text x="165.0" y="304.0" font-size="9" text-anchor="start" font-weight="normal">converged</text>
<rect x="280" y="295" width="10" height="10" fill="#f59e0b"/>
<text x="295.0" y="304.0" font-size="9" text-anchor="start" font-weight="normal">iteration limit</text>
<rect x="410" y="295" width="10" height="10" fill="#60a5fa"/>
<text x="425.0" y="304.0" font-size="9" text-anchor="start" font-weight="normal">delegated</text>
<rect x="540" y="295" width="10" height="10" fill="#dc2626"/>
<text x="555.0" y="304.0" font-size="9" text-anchor="start" font-weight="normal">failed</text>
</svg>
