<svg xmlns="http://www.w3.org/2000/svg" width="780" height="450" viewBox="0 0 780 450">
<rect width="100%" height="100%" fill="white"/>
<style>text{font-family:Inter,Arial,sans-serif;fill:#111827}.axis{stroke:#9ca3af;stroke-width:1}.grid{stroke:#e5e7eb;stroke-width:1}.small{font-size:11px}.tiny{font-size:9px}</style>
<text x="390.0" y="25.0" font-size="17" text-anchor="middle" font-weight="bold">Shared-capital utilization: feasible solvers vs budget-blind LP</text>
<line class="axis" x1="80" y1="50" x2="80" y2="340"/>
<line class="axis" x1="80" y1="340" x2="720" y2="340"/>
<line class="grid" x1="80" y1="340.0" x2="720" y2="340.0"/>
<text x="72.0" y="344.0" font-size="10" text-anchor="end" font-weight="normal">0.0×</text>
<line class="grid" x1="80" y1="321.73217337320733" x2="720" y2="321.73217337320733"/>
<text x="72.0" y="325.7" font-size="10" text-anchor="end" font-weight="normal">0.5×</text>
<line class="grid" x1="80" y1="303.46434674641466" x2="720" y2="303.46434674641466"/>
<text x="72.0" y="307.5" font-size="10" text-anchor="end" font-weight="normal">1.0×</text>
<line class="grid" x1="80" y1="50.0" x2="720" y2="50.0"/>
<text x="72.0" y="54.0" font-size="10" text-anchor="end" font-weight="normal">7.9×</text>
<line x1="80" y1="303.46434674641466" x2="720" y2="303.46434674641466" stroke="#dc2626" stroke-width="1.5" stroke-dasharray="5,4"/>
<text x="80.0" y="360.0" font-size="10" text-anchor="middle" font-weight="normal">0.1×</text>
<text x="208.0" y="360.0" font-size="10" text-anchor="middle" font-weight="normal">0.25×</text>
<text x="336.0" y="360.0" font-size="10" text-anchor="middle" font-weight="normal">0.5×</text>
<text x="464.0" y="360.0" font-size="10" text-anchor="middle" font-weight="normal">1×</text>
<text x="592.0" y="360.0" font-size="10" text-anchor="middle" font-weight="normal">2×</text>
<text x="720.0" y="360.0" font-size="10" text-anchor="middle" font-weight="normal">10×</text>
<polyline fill="none" stroke="#9ca3af" stroke-width="2.5" points="80.0,71.5 208.0,232.6 336.0,286.3 464.0,313.1 592.0,326.6 720.0,337.3"/>
<circle cx="80.0" cy="71.48148148148152" r="4" fill="#9ca3af"/>
<circle cx="208.0" cy="232.59259259259747" r="4" fill="#9ca3af"/>
<circle cx="336.0" cy="286.29629629629875" r="4" fill="#9ca3af"/>
<circle cx="464.0" cy="313.14814814814224" r="4" fill="#9ca3af"/>
<circle cx="592.0" cy="326.5740740740711" r="4" fill="#9ca3af"/>
<circle cx="720.0" cy="337.3148148148142" r="4" fill="#9ca3af"/>
<polyline fill="none" stroke="#111827" stroke-width="2.5" points="80.0,303.5 208.0,303.5 336.0,303.5 464.0,313.1 592.0,326.6 720.0,337.3"/>
<circle cx="80.0" cy="303.4643833325407" r="4" fill="#111827"/>
<circle cx="208.0" cy="303.4967121643719" r="4" fill="#111827"/>
<circle cx="336.0" cy="303.48103231573197" r="4" fill="#111827"/>
<circle cx="464.0" cy="313.14814814814224" r="4" fill="#111827"/>
<circle cx="592.0" cy="326.5740740740711" r="4" fill="#111827"/>
<circle cx="720.0" cy="337.3148148148142" r="4" fill="#111827"/>
<polyline fill="none" stroke="#7c3aed" stroke-width="2.5" points="80.0,303.5 208.0,305.2 336.0,308.1 464.0,313.1 592.0,326.6 720.0,337.3"/>
<circle cx="80.0" cy="303.4643736592282" r="4" fill="#7c3aed"/>
<circle cx="208.0" cy="305.24050193376434" r="4" fill="#7c3aed"/>
<circle cx="336.0" cy="308.0719934372124" r="4" fill="#7c3aed"/>
<circle cx="464.0" cy="313.14814814814224" r="4" fill="#7c3aed"/>
<circle cx="592.0" cy="326.5740740740711" r="4" fill="#7c3aed"/>
<circle cx="720.0" cy="337.3148148148142" r="4" fill="#7c3aed"/>
<polyline fill="none" stroke="#1d4ed8" stroke-width="2.5" points="80.0,304.4 208.0,305.5 336.0,308.2 464.0,313.4 592.0,326.6 720.0,337.3"/>
<circle cx="80.0" cy="304.37799859038387" r="4" fill="#1d4ed8"/>
<circle cx="208.0" cy="305.4609586279893" r="4" fill="#1d4ed8"/>
<circle cx="336.0" cy="308.19877613066075" r="4" fill="#1d4ed8"/>
<circle cx="464.0" cy="313.43928130095367" r="4" fill="#1d4ed8"/>
<circle cx="592.0" cy="326.57416433331707" r="4" fill="#1d4ed8"/>
<circle cx="720.0" cy="337.3345620448452" r="4" fill="#1d4ed8"/>
<rect x="80" y="423" width="12" height="3" fill="#9ca3af"/>
<text x="98.0" y="428.0" font-size="9" text-anchor="start" font-weight="normal">LP (no budget)</text>
<rect x="235" y="423" width="12" height="3" fill="#111827"/>
<text x="253.0" y="428.0" font-size="9" text-anchor="start" font-weight="normal">LP</text>
<rect x="390" y="423" width="12" height="3" fill="#7c3aed"/>
<text x="408.0" y="428.0" font-size="9" text-anchor="start" font-weight="normal">RC-FW</text>
<rect x="545" y="423" width="12" height="3" fill="#1d4ed8"/>
<text x="563.0" y="428.0" font-size="9" text-anchor="start" font-weight="normal">Quasi</text>
</svg>
