<svg xmlns="http://www.w3.org/2000/svg" width="780" height="368" viewBox="0 0 780 368">
<rect width="100%" height="100%" fill="white"/>
<style>text{font-family:Inter,Arial,sans-serif;fill:#111827}.axis{stroke:#9ca3af;stroke-width:1}.grid{stroke:#e5e7eb;stroke-width:1}.small{font-size:11px}.tiny{font-size:9px}</style>
<text x="390.0" y="25.0" font-size="17" text-anchor="middle" font-weight="bold">Every declared run by termination outcome</text>
<text x="140.0" y="69.0" font-size="11" text-anchor="end" font-weight="normal">Fisher</text>
<rect x="150" y="55" width="560.0" height="20" fill="#16a34a"/>
<text x="430.0" y="69.0" font-size="9" text-anchor="middle" font-weight="normal">10</text>
<text x="718.0" y="69.0" font-size="10" text-anchor="start" font-weight="normal">n=10</text>
<text x="140.0" y="117.0" font-size="11" text-anchor="end" font-weight="normal">Quasi</text>
<rect x="150" y="103" width="472.8888888888889" height="20" fill="#16a34a"/>
<text x="386.4" y="117.0" font-size="9" text-anchor="middle" font-weight="normal">114</text>
<rect x="622.8888888888889" y="103" width="87.11111111111111" height="20" fill="#dc2626"/>
<text x="666.4" y="117.0" font-size="9" text-anchor="middle" font-weight="normal">21</text>
<text x="718.0" y="117.0" font-size="10" text-anchor="start" font-weight="normal">n=135</text>
<text x="140.0" y="165.0" font-size="11" text-anchor="end" font-weight="normal">LP</text>
<rect x="150" y="151" width="474.88" height="20" fill="#16a34a"/>
<text x="387.4" y="165.0" font-size="9" text-anchor="middle" font-weight="normal">106</text>
<rect x="624.88" y="151" width="85.12" height="20" fill="#f59e0b"/>
<text x="667.4" y="165.0" font-size="9" text-anchor="middle" font-weight="normal">19</text>
<text x="718.0" y="165.0" font-size="10" text-anchor="start" font-weight="normal">n=125</text>
<text x="140.0" y="213.0" font-size="11" text-anchor="end" font-weight="normal">LP (no budget)</text>
<rect x="150" y="199" width="560.0" height="20" fill="#16a34a"/>
<text x="430.0" y="213.0" font-size="9" text-anchor="middle" font-weight="normal">125</text>
<rect x="710.0" y="199" width="327.04" height="20" fill="#dc2626"/>
<text x="873.5" y="213.0" font-size="9" text-anchor="middle" font-weight="normal">73</text>
<text x="718.0" y="213.0" font-size="10" text-anchor="start" font-weight="normal">n=125</text>
<text x="140.0" y="261.0" font-size="11" text-anchor="end" font-weight="normal">MILP</text>
<rect x="150" y="247" width="560.0" height="20" fill="#16a34a"/>
<text x="430.0" y="261.0" font-size="9" text-anchor="middle" font-weight="normal">15</text>
<text x="718.0" y="261.0" font-size="10" text-anchor="start" font-weight="normal">n=15</text>
<text x="140.0" y="309.0" font-size="11" text-anchor="end" font-weight="normal">RC-FW</text>
<rect x="150" y="295" width="456.2962962962963" height="20" fill="#16a34a"/>
<text x="378.1" y="309.0" font-size="9" text-anchor="middle" font-weight="normal">110</text>
<rect x="606.2962962962963" y="295" width="103.70370370370371" height="20" fill="#f59e0b"/>
<text x="658.1" y="309.0" font-size="9" text-anchor="middle" font-weight="normal">25</text>
<text x="718.0" y="309.0" font-size="10" text-anchor="start" font-weight="normal">n=135</text>
<rect x="150" y="343" width="10" height="10" fill="#16a34a"/>
<text x="165.0" y="352.0" font-size="9" text-anchor="start" font-weight="normal">converged</text>
<rect x="280" y="343" width="10" height="10" fill="#f59e0b"/>
<text x="295.0" y="352.0" font-size="9" text-anchor="start" font-weight="normal">iteration limit</text>
<rect x="410" y="343" width="10" height="10" fill="#60a5fa"/>
<text x="425.0" y="352.0" font-size="9" text-anchor="start" font-weight="normal">delegated</text>
<rect x="540" y="343" width="10" height="10" fill="#dc2626"/>
<text x="555.0" y="352.0" font-size="9" text-anchor="start" font-weight="normal">failed</text>
</svg>
