<svg xmlns="http://www.w3.org/2000/svg" width="780" height="460" viewBox="0 0 780 460">
<rect width="100%" height="100%" fill="white"/>
<style>text{font-family:Inter,Arial,sans-serif;fill:#111827}.axis{stroke:#9ca3af;stroke-width:1}.grid{stroke:#e5e7eb;stroke-width:1}.small{font-size:11px}.tiny{font-size:9px}</style>
<text x="390.0" y="25.0" font-size="17" text-anchor="middle" font-weight="bold">Retained-cash objective gap under flash-liquidity budgets</text>
<line class="axis" x1="80" y1="50" x2="80" y2="350"/>
<line class="axis" x1="80" y1="350" x2="720" y2="350"/>
<line class="grid" x1="80" y1="350.0" x2="720" y2="350.0"/>
<text x="72.0" y="354.0" font-size="10" text-anchor="end" font-weight="normal">0.00%</text>
<line class="grid" x1="80" y1="290.0" x2="720" y2="290.0"/>
<text x="72.0" y="294.0" font-size="10" text-anchor="end" font-weight="normal">0.02%</text>
<line class="grid" x1="80" y1="230.0" x2="720" y2="230.0"/>
<text x="72.0" y="234.0" font-size="10" text-anchor="end" font-weight="normal">0.04%</text>
<line class="grid" x1="80" y1="170.0" x2="720" y2="170.0"/>
<text x="72.0" y="174.0" font-size="10" text-anchor="end" font-weight="normal">0.07%</text>
<line class="grid" x1="80" y1="110.0" x2="720" y2="110.0"/>
<text x="72.0" y="114.0" font-size="10" text-anchor="end" font-weight="normal">0.09%</text>
<line class="grid" x1="80" y1="50.0" x2="720" y2="50.0"/>
<text x="72.0" y="54.0" font-size="10" text-anchor="end" font-weight="normal">0.11%</text>
<text x="80.0" y="370.0" font-size="10" text-anchor="middle" font-weight="normal">0.1×</text>
<text x="400.0" y="370.0" font-size="10" text-anchor="middle" font-weight="normal">0.25×</text>
<text x="720.0" y="370.0" font-size="10" text-anchor="middle" font-weight="normal">1×</text>
<line x1="80.0" y1="257.7614921303362" x2="80.0" y2="347.81518991298805" stroke="#7c3aed" stroke-width="2"/>
<line x1="400.0" y1="348.32607464210014" x2="400.0" y2="349.3578535767633" stroke="#7c3aed" stroke-width="2"/>
<line x1="720.0" y1="350.0" x2="720.0" y2="350.0" stroke="#7c3aed" stroke-width="2"/>
<polyline fill="none" stroke="#7c3aed" stroke-width="2.5" points="80.0,313.2 400.0,348.8 720.0,350.0"/>
<circle cx="80.0" cy="313.2023206006095" r="4" fill="#7c3aed"/>
<circle cx="400.0" cy="348.82863743894166" r="4" fill="#7c3aed"/>
<circle cx="720.0" cy="350.0" r="4" fill="#7c3aed"/>
<rect x="80" y="430" width="12" height="3" fill="#7c3aed"/>
<text x="98.0" y="435.0" font-size="10" text-anchor="start" font-weight="normal">RC-FW</text>
<text x="400.0" y="402.0" font-size="11" text-anchor="middle" font-weight="normal">Budget / unconstrained MM limit-value; paired bootstrap 95% intervals</text>
</svg>
