<svg xmlns="http://www.w3.org/2000/svg" width="900" height="542" viewBox="0 0 900 542">
<rect width="100%" height="100%" fill="white"/>
<style>text{font-family:Inter,Arial,sans-serif;fill:#111827}.axis{stroke:#9ca3af;stroke-width:1}.grid{stroke:#e5e7eb;stroke-width:1}.small{font-size:11px}.tiny{font-size:9px}</style>
<text x="450.0" y="24.0" font-size="17" text-anchor="middle" font-weight="bold">Continuous optimality certificate by experiment (P95)</text>
<line class="grid" x1="250.0" y1="45" x2="250.0" y2="497"/>
<text x="250.0" y="517.0" font-size="9" text-anchor="middle" font-weight="normal">10^-4%</text>
<line class="grid" x1="397.5" y1="45" x2="397.5" y2="497"/>
<text x="397.5" y="517.0" font-size="9" text-anchor="middle" font-weight="normal">10^-3%</text>
<line class="grid" x1="545.0" y1="45" x2="545.0" y2="497"/>
<text x="545.0" y="517.0" font-size="9" text-anchor="middle" font-weight="normal">10^-2%</text>
<line class="grid" x1="692.5" y1="45" x2="692.5" y2="497"/>
<text x="692.5" y="517.0" font-size="9" text-anchor="middle" font-weight="normal">10^-1%</text>
<line class="grid" x1="840.0" y1="45" x2="840.0" y2="497"/>
<text x="840.0" y="517.0" font-size="9" text-anchor="middle" font-weight="normal">10^0%</text>
<text x="240.0" y="50.0" font-size="10" text-anchor="end" font-weight="normal">promotion-concentrated · RC-FW</text>
<line x1="250" y1="45" x2="805.5660972598986" y2="45" stroke="#7c3aed" stroke-width="3"/>
<circle cx="805.5660972598986" cy="45" r="5" fill="#7c3aed"/>
<text x="813.6" y="49.0" font-size="9" text-anchor="start" font-weight="normal">0.584%</text>
<text x="240.0" y="92.0" font-size="10" text-anchor="end" font-weight="normal">promotion-flash-budget · RC-FW</text>
<line x1="250" y1="87" x2="470.8686146956642" y2="87" stroke="#7c3aed" stroke-width="3"/>
<circle cx="470.8686146956642" cy="87" r="5" fill="#7c3aed"/>
<text x="478.9" y="91.0" font-size="9" text-anchor="start" font-weight="normal">0.00314%</text>
<text x="240.0" y="134.0" font-size="10" text-anchor="end" font-weight="normal">promotion-market-like · RC-FW</text>
<line x1="250" y1="129" x2="396.8572033542904" y2="129" stroke="#7c3aed" stroke-width="3"/>
<circle cx="396.8572033542904" cy="129" r="5" fill="#7c3aed"/>
<text x="404.9" y="133.0" font-size="9" text-anchor="start" font-weight="normal">0.00099%</text>
<text x="240.0" y="176.0" font-size="10" text-anchor="end" font-weight="normal">promotion-mms-01 · RC-FW</text>
<line x1="250" y1="171" x2="328.9257917335115" y2="171" stroke="#7c3aed" stroke-width="3"/>
<circle cx="328.9257917335115" cy="171" r="5" fill="#7c3aed"/>
<text x="336.9" y="175.0" font-size="9" text-anchor="start" font-weight="normal">0.000343%</text>
<text x="240.0" y="218.0" font-size="10" text-anchor="end" font-weight="normal">promotion-mms-04 · RC-FW</text>
<line x1="250" y1="213" x2="391.1476523739543" y2="213" stroke="#7c3aed" stroke-width="3"/>
<circle cx="391.1476523739543" cy="213" r="5" fill="#7c3aed"/>
<text x="399.1" y="217.0" font-size="9" text-anchor="start" font-weight="normal">0.000906%</text>
<text x="240.0" y="260.0" font-size="10" text-anchor="end" font-weight="normal">promotion-mms-16 · RC-FW</text>
<line x1="250" y1="255" x2="748.2288216638202" y2="255" stroke="#7c3aed" stroke-width="3"/>
<circle cx="748.2288216638202" cy="255" r="5" fill="#7c3aed"/>
<text x="756.2" y="259.0" font-size="9" text-anchor="start" font-weight="normal">0.239%</text>
<text x="240.0" y="302.0" font-size="10" text-anchor="end" font-weight="normal">promotion-neutral · RC-FW</text>
<line x1="250" y1="297" x2="628.954618704887" y2="297" stroke="#7c3aed" stroke-width="3"/>
<circle cx="628.954618704887" cy="297" r="5" fill="#7c3aed"/>
<text x="637.0" y="301.0" font-size="9" text-anchor="start" font-weight="normal">0.0371%</text>
<text x="240.0" y="344.0" font-size="10" text-anchor="end" font-weight="normal">promotion-numerical · RC-FW</text>
<line x1="250" y1="339" x2="713.6262870451458" y2="339" stroke="#7c3aed" stroke-width="3"/>
<circle cx="713.6262870451458" cy="339" r="5" fill="#7c3aed"/>
<text x="721.6" y="343.0" font-size="9" text-anchor="start" font-weight="normal">0.139%</text>
<text x="240.0" y="386.0" font-size="10" text-anchor="end" font-weight="normal">promotion-orders-00080 · RC-FW</text>
<line x1="250" y1="381" x2="590.3672045166315" y2="381" stroke="#7c3aed" stroke-width="3"/>
<circle cx="590.3672045166315" cy="381" r="5" fill="#7c3aed"/>
<text x="598.4" y="385.0" font-size="9" text-anchor="start" font-weight="normal">0.0203%</text>
<text x="240.0" y="428.0" font-size="10" text-anchor="end" font-weight="normal">promotion-orders-02000 · RC-FW</text>
<line x1="250" y1="423" x2="385.1807547892571" y2="423" stroke="#7c3aed" stroke-width="3"/>
<circle cx="385.1807547892571" cy="423" r="5" fill="#7c3aed"/>
<text x="393.2" y="427.0" font-size="9" text-anchor="start" font-weight="normal">0.000825%</text>
<text x="240.0" y="470.0" font-size="10" text-anchor="end" font-weight="normal">promotion-orders-10000 · RC-FW</text>
<line x1="250" y1="465" x2="377.7108771966573" y2="465" stroke="#7c3aed" stroke-width="3"/>
<circle cx="377.7108771966573" cy="465" r="5" fill="#7c3aed"/>
<text x="385.7" y="469.0" font-size="9" text-anchor="start" font-weight="normal">0.000734%</text>
</svg>
