<svg xmlns="http://www.w3.org/2000/svg" width="760" height="460" viewBox="0 0 760 460">
<rect width="100%" height="100%" fill="white"/>
<style>text{font-family:Inter,Arial,sans-serif;fill:#111827}.axis{stroke:#9ca3af;stroke-width:1}.grid{stroke:#e5e7eb;stroke-width:1}.small{font-size:11px}.tiny{font-size:9px}</style>
<text x="380.0" y="25.0" font-size="17" text-anchor="middle" font-weight="bold">Runtime versus order count at fixed MM dimension</text>
<line class="axis" x1="85" y1="50" x2="85" y2="350"/>
<line class="axis" x1="85" y1="350" x2="705" y2="350"/>
<line class="grid" x1="85" y1="283.11114926782045" x2="705" y2="283.11114926782045"/>
<text x="77.0" y="287.1" font-size="10" text-anchor="end" font-weight="normal">0.01s</text>
<line class="grid" x1="85" y1="191.31840037535758" x2="705" y2="191.31840037535758"/>
<text x="77.0" y="195.3" font-size="10" text-anchor="end" font-weight="normal">0.1s</text>
<line class="grid" x1="85" y1="99.52565148289472" x2="705" y2="99.52565148289472"/>
<text x="77.0" y="103.5" font-size="10" text-anchor="end" font-weight="normal">1s</text>
<text x="85.0" y="370.0" font-size="10" text-anchor="middle" font-weight="normal">80</text>
<text x="395.0" y="370.0" font-size="10" text-anchor="middle" font-weight="normal">2,000</text>
<text x="705.0" y="370.0" font-size="10" text-anchor="middle" font-weight="normal">10,000</text>
<polyline fill="none" stroke="#7c3aed" stroke-width="2.5" points="85.0,279.1 395.0,196.6 705.0,66.2"/>
<circle cx="85.0" cy="279.06001063558824" r="4" fill="#7c3aed"/>
<circle cx="395.0" cy="196.56908751539714" r="4" fill="#7c3aed"/>
<circle cx="705.0" cy="66.16390072465578" r="4" fill="#7c3aed"/>
<rect x="85" y="430" width="12" height="3" fill="#7c3aed"/>
<text x="103.0" y="435.0" font-size="10" text-anchor="start" font-weight="normal">RC-FW</text>
<text x="395.0" y="402.0" font-size="11" text-anchor="middle" font-weight="normal">Declared orders; fixed two market makers (log-time axis)</text>
</svg>
