<svg xmlns="http://www.w3.org/2000/svg" width="820" height="390" viewBox="0 0 820 390">
<rect width="100%" height="100%" fill="white"/>
<style>text{font-family:Inter,Arial,sans-serif;fill:#111827}.axis{stroke:#9ca3af;stroke-width:1}.grid{stroke:#e5e7eb;stroke-width:1}.small{font-size:11px}.tiny{font-size:9px}</style>
<text x="410.0" y="25.0" font-size="17" text-anchor="middle" font-weight="bold">Retained-cash objective shortfall on random books</text>
<line class="axis" x1="80" y1="55" x2="80" y2="300"/>
<line class="axis" x1="80" y1="300" x2="760" y2="300"/>
<line class="grid" x1="80" y1="300.0" x2="760" y2="300.0"/>
<text x="72.0" y="304.0" font-size="10" text-anchor="end" font-weight="normal">0.00%</text>
<line class="grid" x1="80" y1="251.0" x2="760" y2="251.0"/>
<text x="72.0" y="255.0" font-size="10" text-anchor="end" font-weight="normal">0.02%</text>
<line class="grid" x1="80" y1="202.0" x2="760" y2="202.0"/>
<text x="72.0" y="206.0" font-size="10" text-anchor="end" font-weight="normal">0.05%</text>
<line class="grid" x1="80" y1="153.0" x2="760" y2="153.0"/>
<text x="72.0" y="157.0" font-size="10" text-anchor="end" font-weight="normal">0.07%</text>
<line class="grid" x1="80" y1="104.0" x2="760" y2="104.0"/>
<text x="72.0" y="108.0" font-size="10" text-anchor="end" font-weight="normal">0.09%</text>
<line class="grid" x1="80" y1="55.0" x2="760" y2="55.0"/>
<text x="72.0" y="59.0" font-size="10" text-anchor="end" font-weight="normal">0.11%</text>
<text x="250.0" y="322.0" font-size="11" text-anchor="middle" font-weight="bold">concentrated</text>
<text x="250.0" y="340.0" font-size="9" text-anchor="middle" font-weight="normal">RC-FW</text>
<line x1="250.0" y1="124.55061205641363" x2="250.0" y2="261.2900980281278" stroke="#7c3aed" stroke-width="4"/>
<circle cx="250.0" cy="242.6595385028192" r="5" fill="#7c3aed"/>
<text x="590.0" y="322.0" font-size="11" text-anchor="middle" font-weight="bold">neutral</text>
<text x="590.0" y="340.0" font-size="9" text-anchor="middle" font-weight="normal">RC-FW</text>
<line x1="590.0" y1="297.6761667977264" x2="590.0" y2="300.0" stroke="#7c3aed" stroke-width="4"/>
<circle cx="590.0" cy="299.55860424872014" r="5" fill="#7c3aed"/>
</svg>
