<svg xmlns="http://www.w3.org/2000/svg" width="780" height="450" viewBox="0 0 780 450">
<rect width="100%" height="100%" fill="white"/>
<style>text{font-family:Inter,Arial,sans-serif;fill:#111827}.axis{stroke:#9ca3af;stroke-width:1}.grid{stroke:#e5e7eb;stroke-width:1}.small{font-size:11px}.tiny{font-size:9px}</style>
<text x="390.0" y="25.0" font-size="17" text-anchor="middle" font-weight="bold">Shared-capital utilization: feasible solvers vs budget-blind LP</text>
<line class="axis" x1="80" y1="50" x2="80" y2="340"/>
<line class="axis" x1="80" y1="340" x2="720" y2="340"/>
<line class="grid" x1="80" y1="340.0" x2="720" y2="340.0"/>
<text x="72.0" y="344.0" font-size="10" text-anchor="end" font-weight="normal">0.0×</text>
<line class="grid" x1="80" y1="217.94612794612797" x2="720" y2="217.94612794612797"/>
<text x="72.0" y="221.9" font-size="10" text-anchor="end" font-weight="normal">0.5×</text>
<line class="grid" x1="80" y1="95.89225589225595" x2="720" y2="95.89225589225595"/>
<text x="72.0" y="99.9" font-size="10" text-anchor="end" font-weight="normal">1.0×</text>
<line class="grid" x1="80" y1="50.0" x2="720" y2="50.0"/>
<text x="72.0" y="54.0" font-size="10" text-anchor="end" font-weight="normal">1.2×</text>
<line x1="80" y1="95.89225589225595" x2="720" y2="95.89225589225595" stroke="#dc2626" stroke-width="1.5" stroke-dasharray="5,4"/>
<rect x="80" y="423" width="12" height="3" fill="#9ca3af"/>
<text x="98.0" y="428.0" font-size="9" text-anchor="start" font-weight="normal">LP (no budget)</text>
<rect x="235" y="423" width="12" height="3" fill="#111827"/>
<text x="253.0" y="428.0" font-size="9" text-anchor="start" font-weight="normal">LP</text>
<rect x="390" y="423" width="12" height="3" fill="#7c3aed"/>
<text x="408.0" y="428.0" font-size="9" text-anchor="start" font-weight="normal">RC-FW</text>
<rect x="545" y="423" width="12" height="3" fill="#1d4ed8"/>
<text x="563.0" y="428.0" font-size="9" text-anchor="start" font-weight="normal">Quasi</text>
</svg>
