<svg xmlns="http://www.w3.org/2000/svg" width="980" height="450" viewBox="0 0 980 450">
<rect width="100%" height="100%" fill="white"/>
<style>text{font-family:Inter,Arial,sans-serif;fill:#111827}.axis{stroke:#9ca3af;stroke-width:1}.grid{stroke:#e5e7eb;stroke-width:1}.small{font-size:11px}.tiny{font-size:9px}</style>
<text x="490.0" y="24.0" font-size="17" text-anchor="middle" font-weight="bold">Landed economic-quality tails</text>
<text x="275.0" y="45.0" font-size="12" text-anchor="middle" font-weight="bold">Observed-best net-welfare gap</text>
<line class="axis" x1="70" y1="60" x2="70" y2="345"/>
<line class="axis" x1="70" y1="345" x2="480" y2="345"/>
<line class="grid" x1="70" y1="345.0" x2="480" y2="345.0"/>
<text x="63.0" y="349.0" font-size="9" text-anchor="end" font-weight="normal">10^-6%</text>
<line class="grid" x1="70" y1="288.0" x2="480" y2="288.0"/>
<text x="63.0" y="292.0" font-size="9" text-anchor="end" font-weight="normal">10^-5%</text>
<line class="grid" x1="70" y1="231.0" x2="480" y2="231.0"/>
<text x="63.0" y="235.0" font-size="9" text-anchor="end" font-weight="normal">10^-4%</text>
<line class="grid" x1="70" y1="174.0" x2="480" y2="174.0"/>
<text x="63.0" y="178.0" font-size="9" text-anchor="end" font-weight="normal">10^-3%</text>
<line class="grid" x1="70" y1="117.0" x2="480" y2="117.0"/>
<text x="63.0" y="121.0" font-size="9" text-anchor="end" font-weight="normal">10^-2%</text>
<line class="grid" x1="70" y1="60.0" x2="480" y2="60.0"/>
<text x="63.0" y="64.0" font-size="9" text-anchor="end" font-weight="normal">10^-1%</text>
<text x="138.3" y="364.0" font-size="9" text-anchor="middle" font-weight="normal">RC-FW</text>
<circle cx="138.33333333333331" cy="164.8135065083429" r="4" fill="#7c3aed" fill-opacity="0.55"/>
<circle cx="138.33333333333331" cy="130.58758091139754" r="5" fill="#7c3aed" fill-opacity="0.8"/>
<circle cx="138.33333333333331" cy="126.73968436120069" r="6" fill="#7c3aed" fill-opacity="1.0"/>
<line x1="138.33333333333331" y1="164.8135065083429" x2="138.33333333333331" y2="126.73968436120069" stroke="#7c3aed" stroke-width="2"/>
<text x="275.0" y="364.0" font-size="9" text-anchor="middle" font-weight="normal">Pacing bundle</text>
<circle cx="275.0" cy="345.0" r="4" fill="#ea580c" fill-opacity="0.55"/>
<circle cx="275.0" cy="169.10240086072798" r="5" fill="#ea580c" fill-opacity="0.8"/>
<circle cx="275.0" cy="167.06095286550672" r="6" fill="#ea580c" fill-opacity="1.0"/>
<line x1="275.0" y1="345.0" x2="275.0" y2="167.06095286550672" stroke="#ea580c" stroke-width="2"/>
<text x="411.7" y="364.0" font-size="9" text-anchor="middle" font-weight="normal">Exact bundle</text>
<circle cx="411.6666666666667" cy="345.0" r="4" fill="#0f766e" fill-opacity="0.55"/>
<circle cx="411.6666666666667" cy="169.10240086072798" r="5" fill="#0f766e" fill-opacity="0.8"/>
<circle cx="411.6666666666667" cy="167.06095286550672" r="6" fill="#0f766e" fill-opacity="1.0"/>
<line x1="411.6666666666667" y1="345.0" x2="411.6666666666667" y2="167.06095286550672" stroke="#0f766e" stroke-width="2"/>
<text x="760.0" y="45.0" font-size="12" text-anchor="middle" font-weight="bold">Observed-best retained-objective gap</text>
<line class="axis" x1="555" y1="60" x2="555" y2="345"/>
<line class="axis" x1="555" y1="345" x2="965" y2="345"/>
<line class="grid" x1="555" y1="345.0" x2="965" y2="345.0"/>
<text x="548.0" y="349.0" font-size="9" text-anchor="end" font-weight="normal">10^-6%</text>
<line class="grid" x1="555" y1="288.0" x2="965" y2="288.0"/>
<text x="548.0" y="292.0" font-size="9" text-anchor="end" font-weight="normal">10^-5%</text>
<line class="grid" x1="555" y1="231.0" x2="965" y2="231.0"/>
<text x="548.0" y="235.0" font-size="9" text-anchor="end" font-weight="normal">10^-4%</text>
<line class="grid" x1="555" y1="174.0" x2="965" y2="174.0"/>
<text x="548.0" y="178.0" font-size="9" text-anchor="end" font-weight="normal">10^-3%</text>
<line class="grid" x1="555" y1="117.0" x2="965" y2="117.0"/>
<text x="548.0" y="121.0" font-size="9" text-anchor="end" font-weight="normal">10^-2%</text>
<line class="grid" x1="555" y1="60.0" x2="965" y2="60.0"/>
<text x="548.0" y="64.0" font-size="9" text-anchor="end" font-weight="normal">10^-1%</text>
<text x="623.3" y="364.0" font-size="9" text-anchor="middle" font-weight="normal">RC-FW</text>
<circle cx="623.3333333333334" cy="186.68799013977304" r="4" fill="#7c3aed" fill-opacity="0.55"/>
<circle cx="623.3333333333334" cy="173.10003834346728" r="5" fill="#7c3aed" fill-opacity="0.8"/>
<circle cx="623.3333333333334" cy="152.97666874694892" r="6" fill="#7c3aed" fill-opacity="1.0"/>
<line x1="623.3333333333334" y1="186.68799013977304" x2="623.3333333333334" y2="152.97666874694892" stroke="#7c3aed" stroke-width="2"/>
<text x="760.0" y="364.0" font-size="9" text-anchor="middle" font-weight="normal">Pacing bundle</text>
<circle cx="760.0" cy="345.0" r="4" fill="#ea580c" fill-opacity="0.55"/>
<circle cx="760.0" cy="345.0" r="5" fill="#ea580c" fill-opacity="0.8"/>
<circle cx="760.0" cy="345.0" r="6" fill="#ea580c" fill-opacity="1.0"/>
<line x1="760.0" y1="345.0" x2="760.0" y2="345.0" stroke="#ea580c" stroke-width="2"/>
<text x="896.7" y="364.0" font-size="9" text-anchor="middle" font-weight="normal">Exact bundle</text>
<circle cx="896.6666666666667" cy="345.0" r="4" fill="#0f766e" fill-opacity="0.55"/>
<circle cx="896.6666666666667" cy="345.0" r="5" fill="#0f766e" fill-opacity="0.8"/>
<circle cx="896.6666666666667" cy="345.0" r="6" fill="#0f766e" fill-opacity="1.0"/>
<line x1="896.6666666666667" y1="345.0" x2="896.6666666666667" y2="345.0" stroke="#0f766e" stroke-width="2"/>
<text x="70.0" y="415.0" font-size="10" text-anchor="start" font-weight="normal">Marker size: P50, P95, maximum. Zeroes are placed at the 10^-6% floor.</text>
</svg>
