<svg xmlns="http://www.w3.org/2000/svg" width="780" height="224" viewBox="0 0 780 224">
<rect width="100%" height="100%" fill="white"/>
<style>text{font-family:Inter,Arial,sans-serif;fill:#111827}.axis{stroke:#9ca3af;stroke-width:1}.grid{stroke:#e5e7eb;stroke-width:1}.small{font-size:11px}.tiny{font-size:9px}</style>
<text x="390.0" y="25.0" font-size="17" text-anchor="middle" font-weight="bold">Every declared run by termination outcome</text>
<text x="140.0" y="69.0" font-size="11" text-anchor="end" font-weight="normal">Exact bundle</text>
<rect x="150" y="55" width="560.0" height="20" fill="#16a34a"/>
<text x="430.0" y="69.0" font-size="9" text-anchor="middle" font-weight="normal">20</text>
<text x="718.0" y="69.0" font-size="10" text-anchor="start" font-weight="normal">n=20</text>
<text x="140.0" y="117.0" font-size="11" text-anchor="end" font-weight="normal">Pacing bundle</text>
<rect x="150" y="103" width="560.0" height="20" fill="#16a34a"/>
<text x="430.0" y="117.0" font-size="9" text-anchor="middle" font-weight="normal">20</text>
<text x="718.0" y="117.0" font-size="10" text-anchor="start" font-weight="normal">n=20</text>
<text x="140.0" y="165.0" font-size="11" text-anchor="end" font-weight="normal">RC-FW</text>
<rect x="150" y="151" width="476.0" height="20" fill="#16a34a"/>
<text x="388.0" y="165.0" font-size="9" text-anchor="middle" font-weight="normal">17</text>
<rect x="626.0" y="151" width="56.0" height="20" fill="#f59e0b"/>
<text x="654.0" y="165.0" font-size="9" text-anchor="middle" font-weight="normal">2</text>
<rect x="682.0" y="151" width="28.0" height="20" fill="#dc2626"/>
<text x="696.0" y="165.0" font-size="9" text-anchor="middle" font-weight="normal">1</text>
<text x="718.0" y="165.0" font-size="10" text-anchor="start" font-weight="normal">n=20</text>
<rect x="150" y="199" width="10" height="10" fill="#16a34a"/>
<text x="165.0" y="208.0" font-size="9" text-anchor="start" font-weight="normal">converged</text>
<rect x="280" y="199" width="10" height="10" fill="#f59e0b"/>
<text x="295.0" y="208.0" font-size="9" text-anchor="start" font-weight="normal">iteration limit</text>
<rect x="410" y="199" width="10" height="10" fill="#60a5fa"/>
<text x="425.0" y="208.0" font-size="9" text-anchor="start" font-weight="normal">delegated</text>
<rect x="540" y="199" width="10" height="10" fill="#dc2626"/>
<text x="555.0" y="208.0" font-size="9" text-anchor="start" font-weight="normal">failed</text>
</svg>
