<svg xmlns="http://www.w3.org/2000/svg" viewBox="0 0 64 64" role="img" aria-label="METR">
  <rect width="64" height="64" rx="8" fill="#fff"/>
  <g transform="translate(7 12.5) scale(1.18)">
    <path d="M13.6511 31.2849C8.79517 29.9803 4.36729 27.4172.8125 23.8532L21.0635 3.54932 13.6511 31.2849Z" fill="#9DC88E"/>
    <path d="M21.1973 4.04688C21.2615 3.99002 21.3277 3.93214 21.3926 3.87598L39.2441 21.7744C36.8666 24.1384 34.0532 26.0168 30.959 27.3018 29.8986 27.7421 28.8116 28.1073 27.707 28.4014L28.4775 31.2852C23.6216 32.5897 18.5083 32.5897 13.6523 31.2852L14.4268 28.3867C14.3071 28.3546 14.1876 28.322 14.0684 28.2881 13.4817 26.2284 13.168 24.0553 13.168 21.8096 13.168 14.9191 16.1233 8.71266 20.8457 4.36621L21.0645 3.54883 21.1973 4.04688Z" fill="#F0DE7A"/>
    <path d="M41.3174 23.8535C37.7626 27.4175 33.3344 29.9806 28.4785 31.2852L27.707 28.4004 27.7061 28.4014C27.4753 28.4627 27.244 28.5222 27.0117 28.5771 20.9918 26.8363 16.59 21.2839 16.5898 14.7031 16.5898 10.5181 18.3703 6.74883 21.2148 4.11133L21.0602 3.54883 41.3174 23.8535Z" fill="#FBA6A6"/>
    <path d="M24.4809 4.17407C24.4809 6.07376 22.9409 7.61376 21.0413 7.61376 19.1416 7.61376 17.6016 6.07376 17.6016 4.17407S19.1416.734375 21.0413.734375 24.4809 2.27438 24.4809 4.17407Z" fill="#fff"/>
    <path d="M21.5098 3.84473 21.9961 4.33203 21.917 4.40137 39.0156 21.5459C36.7435 23.9625 33.5014 25.4756 29.9004 25.4756 28.8383 25.4756 27.8074 25.3441 26.8232 25.0967 21.4394 23.7431 17.4572 18.9202 17.457 13.1777 17.457 12.8779 17.4679 12.5806 17.4893 12.2861 17.3502 13.0709 17.2773 13.8785 17.2773 14.7031 17.2775 21.401 22.0655 26.9792 28.4053 28.2051 27.9438 28.342 27.4788 28.4655 27.0107 28.5762 21.1053 26.8677 16.7571 21.492 16.5947 15.0752L16.5898 14.7031C16.5898 12.6856 17.0037 10.7646 17.751 9.02051 15.2902 12.6838 13.8555 17.0812 13.8555 21.8096 13.8555 24.1356 14.2041 26.3811 14.8496 28.499 14.5888 28.4337 14.3291 28.3635 14.0703 28.29 13.5369 26.418 13.2277 24.4526 13.1758 22.4238L13.168 21.8096C13.168 14.6186 16.3848 8.17102 21.4717 3.80664L21.5098 3.84473Z" fill="#fff"/>
    <path fill-rule="evenodd" d="M21.042.0107422C23.3412.0107422 25.205 1.8747 25.2051 4.17383 25.2051 4.89609 25.0191 5.57415 24.6953 6.16602L41.8272 23.3418C42.1087 23.6241 42.1086 24.0809 41.8272 24.3633 36.341 29.8637 28.8967 32.9863 21.0645 32.9863 13.232 32.9863 5.7872 29.8637.300793 24.3633.0195928 24.0809.0194617 23.6241.300793 23.3418L17.4024 6.19434C17.0693 5.59595 16.8789 4.90725 16.8789 4.17383 16.879 1.87479 18.743.0108855 21.042.0107422Zm-19.2012 23.834C6.989 28.7457 13.828 31.5391 21.0645 31.5391 28.3004 31.539 35.138 28.746 40.2861 23.8457L21.0635 4.57227 1.84083 23.8447ZM21.042 1.45801C19.5421 1.45815 18.3263 2.67388 18.3262 4.17383 18.3262 4.50031 18.3854 4.81268 18.4912 5.10254L19.3145 4.27734C19.3124 4.24304 19.3086 4.20864 19.3086 4.17383 19.3087 3.21656 20.0847 2.44055 21.042 2.44043 21.9994 2.44043 22.7753 3.21648 22.7754 4.17383 22.7754 4.19479 22.7723 4.21556 22.7715 4.23633L23.6035 5.07129C23.7027 4.79025 23.7588 4.48882 23.7588 4.17383 23.7587 2.6738 22.5421 1.45801 21.042 1.45801Z" fill="#14191F"/>
  </g>
</svg>
